<svg width="36" height="36" viewBox="0 0 36 25" fill="none" xmlns="http://www.w3.org/2000/svg">
<g filter="url(#filter0_d_5_198)">
<path d="M17.9999 0C10.2681 0 4 6.26812 4 14.0001C4 21.7324 10.2681 28 17.9999 28C25.7325 28 32 21.7324 32 14.0001C32 6.26862 25.7325 0.000668721 17.9998 0.000668721L17.9999 0ZM24.4202 20.1921C24.1694 20.6034 23.6311 20.7338 23.2199 20.4814C19.9328 18.4735 15.7948 18.0188 10.9216 19.1322C10.452 19.2392 9.98394 18.945 9.87695 18.4752C9.76945 18.0054 10.0625 17.5373 10.5333 17.4303C15.8662 16.2114 20.4407 16.7365 24.131 18.9918C24.5422 19.2442 24.6726 19.7809 24.4202 20.1921ZM26.1338 16.3796C25.8178 16.8937 25.1457 17.0558 24.6325 16.7398C20.8693 14.4262 15.133 13.7563 10.6819 15.1075C10.1046 15.2819 9.49495 14.9565 9.31974 14.3803C9.14588 13.803 9.47137 13.1944 10.0476 13.0189C15.132 11.4762 21.4528 12.2234 25.7743 14.8791C26.2876 15.1951 26.4497 15.867 26.1338 16.3796ZM26.2809 12.41C21.7688 9.72994 14.3244 9.48352 10.0164 10.791C9.32459 11.0009 8.59303 10.6103 8.38338 9.91852C8.17374 9.22639 8.56394 8.49531 9.25622 8.285C14.2015 6.78371 22.4224 7.07377 27.6173 10.1578C28.2409 10.5271 28.4448 11.3307 28.0753 11.9521C27.7076 12.5744 26.9018 12.7795 26.2815 12.41H26.2809Z" fill="white"/>
</g>
<defs>
<filter id="filter0_d_5_198" x="0" y="0" width="36" height="36" filterUnits="userSpaceOnUse" color-interpolation-filters="sRGB">
<feFlood flood-opacity="0" result="BackgroundImageFix"/>
<feColorMatrix in="SourceAlpha" type="matrix" values="0 0 0 0 0 0 0 0 0 0 0 0 0 0 0 0 0 0 127 0" result="hardAlpha"/>
<feOffset dy="4"/>
<feGaussianBlur stdDeviation="2"/>
<feComposite in2="hardAlpha" operator="out"/>
<feColorMatrix type="matrix" values="0 0 0 0 0 0 0 0 0 0 0 0 0 0 0 0 0 0 0.25 0"/>
<feBlend mode="normal" in2="BackgroundImageFix" result="effect1_dropShadow_5_198"/>
<feBlend mode="normal" in="SourceGraphic" in2="effect1_dropShadow_5_198" result="shape"/>
</filter>
</defs>
</svg>
